<svg width="487" height="334" viewBox="0 0 487 334" fill="none" xmlns="http://www.w3.org/2000/svg">
<path d="M442.278 7.27368H358.272H209.299H88.7968H52.7941L42.0918 83.7563M442.278 7.27368L478.281 320.388H397.395M442.278 7.27368L431.315 83.7563M397.395 320.388L396.456 326.934H8.06348L42.0918 83.7563M397.395 320.388L431.315 83.7563M431.315 83.7563H42.0918M99.8804 53.2674H200.077M233.16 53.2674H265.714M299.352 53.2674H362.471H399.548M136.916 133.609L128.725 183.389H79.5753L88.7969 132.991L136.916 133.609ZM248.197 132.991L240.005 182.771H190.856L200.077 132.991H248.197ZM362.471 230.011L354.279 279.79H305.13L314.352 229.393L362.471 230.011ZM248.196 230.629L240.005 280.408H190.856L200.077 230.011L248.196 230.629ZM136.916 230.629L128.725 280.408H79.5753L88.7969 230.011L136.916 230.629ZM362.471 132.991L354.279 182.771H305.13L314.352 132.991H362.471Z" stroke="white" stroke-width="14"/>
</svg>
