<svg width="14" height="14" viewBox="0 0 14 14" fill="none" xmlns="http://www.w3.org/2000/svg">
<path fill-rule="evenodd" clip-rule="evenodd" d="M7 2.27844C5.41184 2.27844 5.21303 2.28397 4.58931 2.30769C3.96675 2.33142 3.54145 2.41397 3.16956 2.53454C2.77973 2.65674 2.42615 2.84849 2.13378 3.09679C1.83643 3.34026 1.60629 3.63483 1.45938 3.95999C1.31554 4.27004 1.21613 4.62494 1.18767 5.14397C1.1596 5.66364 1.15259 5.82907 1.15259 7.15344C1.15259 8.47782 1.15921 8.64324 1.18767 9.16324C1.21613 9.68227 1.31515 10.0368 1.45977 10.3469C1.60635 10.6719 1.83635 10.9667 2.13417 11.2104C2.42621 11.4583 2.77954 11.6502 3.16956 11.7727C3.54145 11.8929 3.96675 11.9755 4.58931 11.9992C5.21303 12.0229 5.41184 12.0284 7 12.0284C8.58816 12.0284 8.78697 12.0229 9.41069 11.9992C10.0332 11.9755 10.4585 11.8929 10.8304 11.7723C11.2203 11.6501 11.5738 11.4584 11.8662 11.2101C12.1636 10.9666 12.3937 10.6721 12.5406 10.3469C12.6849 10.0368 12.7839 9.68227 12.8123 9.16324C12.8408 8.64324 12.8474 8.47749 12.8474 7.15344C12.8474 5.82939 12.8408 5.66364 12.8123 5.14364C12.7839 4.62462 12.6849 4.27004 12.5402 3.95999C12.3934 3.63469 12.1633 3.34 11.8658 3.09647C11.5738 2.84856 11.2205 2.6567 10.8304 2.53422C10.4585 2.41429 10.0329 2.33142 9.4103 2.30769C8.78697 2.28429 8.58855 2.27844 7 2.27844ZM7 3.15692C8.56126 3.15692 8.74643 3.16179 9.36313 3.18519C9.93306 3.20697 10.2426 3.28594 10.4488 3.35322C10.7217 3.44129 10.9166 3.54724 11.1213 3.71754C11.3259 3.88817 11.4526 4.05067 11.5583 4.27817C11.6386 4.45009 11.7337 4.70814 11.7598 5.18329C11.7879 5.69744 11.7937 5.85182 11.7937 7.15344C11.7937 8.45507 11.7879 8.60944 11.7598 9.12359C11.7337 9.59874 11.6389 9.85679 11.5583 10.0287C11.4647 10.2405 11.3153 10.432 11.1213 10.5893C10.9326 10.7512 10.7028 10.8757 10.4488 10.9537C10.2426 11.0206 9.93306 11.0999 9.36313 11.1217C8.74643 11.1451 8.56165 11.15 7 11.15C5.43835 11.15 5.25357 11.1451 4.63687 11.1217C4.06694 11.0999 3.75741 11.0209 3.5512 10.9537C3.29721 10.8756 3.06742 10.7512 2.87874 10.5893C2.68468 10.432 2.53536 10.2405 2.44175 10.0287C2.36144 9.85679 2.26632 9.59874 2.24021 9.12359C2.21214 8.60944 2.20629 8.45507 2.20629 7.15344C2.20629 5.85182 2.21214 5.69744 2.24021 5.18329C2.26632 4.70814 2.36105 4.45009 2.44175 4.27817C2.54739 4.05067 2.67447 3.88817 2.87874 3.71754C3.0674 3.55571 3.29719 3.43121 3.5512 3.35322C3.75741 3.28627 4.06694 3.20697 4.63687 3.18519C5.25357 3.16179 5.43874 3.15692 7 3.15692Z" fill="white"/>
<path d="M2.56299 3.36194L6.41243 7.52535C6.81945 7.96558 7.5197 7.95115 7.90826 7.49455L11.4249 3.36194" stroke="white"/>
</svg>
