<svg width="14" height="14" viewBox="0 0 14 14" fill="none" xmlns="http://www.w3.org/2000/svg">
<path fill-rule="evenodd" clip-rule="evenodd" d="M7 1.95166C5.67595 1.95166 5.5102 1.95719 4.9902 1.98091C4.47117 2.00464 4.1166 2.08719 3.80655 2.20776C3.48155 2.32996 3.18677 2.52171 2.94302 2.77001C2.69512 3.01348 2.50325 3.30805 2.38077 3.63321C2.26085 3.94326 2.17797 4.29816 2.15425 4.81719C2.13085 5.33686 2.125 5.50229 2.125 6.82666C2.125 8.15103 2.13053 8.31646 2.15425 8.83646C2.17797 9.35548 2.26052 9.71006 2.3811 10.0201C2.5033 10.3451 2.69505 10.6399 2.94335 10.8836C3.18683 11.1315 3.48139 11.3234 3.80655 11.4459C4.1166 11.5661 4.47117 11.6487 4.9902 11.6724C5.5102 11.6961 5.67595 11.7017 7 11.7017C8.32405 11.7017 8.4898 11.6961 9.0098 11.6724C9.52882 11.6487 9.8834 11.5661 10.1934 11.4456C10.5184 11.3234 10.8132 11.1316 11.057 10.8833C11.3049 10.6398 11.4967 10.3453 11.6192 10.0201C11.7395 9.71006 11.822 9.35548 11.8457 8.83646C11.8695 8.31646 11.875 8.15071 11.875 6.82666C11.875 5.50261 11.8695 5.33686 11.8457 4.81686C11.822 4.29784 11.7395 3.94326 11.6189 3.63321C11.4965 3.30791 11.3046 3.01321 11.0566 2.76969C10.8132 2.52178 10.5186 2.32991 10.1934 2.20744C9.8834 2.08751 9.5285 2.00464 9.00947 1.98091C8.4898 1.95751 8.32437 1.95166 7 1.95166ZM7 2.83014C8.30162 2.83014 8.456 2.83501 8.97015 2.85841C9.4453 2.88019 9.70335 2.95916 9.87527 3.02644C10.1028 3.11451 10.2653 3.22046 10.4359 3.39076C10.6065 3.56139 10.7121 3.72389 10.8002 3.95139C10.8672 4.12331 10.9465 4.38136 10.9682 4.85651C10.9916 5.37066 10.9965 5.52503 10.9965 6.82666C10.9965 8.12828 10.9916 8.28266 10.9682 8.79681C10.9465 9.27196 10.8675 9.53001 10.8002 9.70193C10.7222 9.91369 10.5977 10.1053 10.4359 10.2626C10.2786 10.4244 10.087 10.5489 9.87527 10.6269C9.70335 10.6938 9.4453 10.7731 8.97015 10.7949C8.456 10.8183 8.30195 10.8232 7 10.8232C5.69805 10.8232 5.544 10.8183 5.02985 10.7949C4.5547 10.7731 4.29665 10.6942 4.12472 10.6269C3.91297 10.5489 3.7214 10.4244 3.5641 10.2626C3.40231 10.1052 3.27782 9.91368 3.19977 9.70193C3.13282 9.53001 3.05352 9.27196 3.03175 8.79681C3.00835 8.28266 3.00347 8.12828 3.00347 6.82666C3.00347 5.52503 3.00835 5.37066 3.03175 4.85651C3.05352 4.38136 3.1325 4.12331 3.19977 3.95139C3.28785 3.72389 3.3938 3.56139 3.5641 3.39076C3.72138 3.22892 3.91296 3.10443 4.12472 3.02644C4.29665 2.95949 4.5547 2.88019 5.02985 2.85841C5.544 2.83501 5.69837 2.83014 7 2.83014V2.83014Z" fill="#805D33"/>
<path fill-rule="evenodd" clip-rule="evenodd" d="M7.00001 8.45329C6.7864 8.45329 6.57488 8.41122 6.37753 8.32947C6.18018 8.24773 6.00086 8.12791 5.84981 7.97687C5.69877 7.82582 5.57895 7.6465 5.49721 7.44915C5.41546 7.2518 5.37339 7.04028 5.37339 6.82667C5.37339 6.61306 5.41546 6.40154 5.49721 6.20419C5.57895 6.00683 5.69877 5.82752 5.84981 5.67647C6.00086 5.52542 6.18018 5.40561 6.37753 5.32386C6.57488 5.24212 6.7864 5.20004 7.00001 5.20004C7.43142 5.20004 7.84516 5.37142 8.15021 5.67647C8.45526 5.98152 8.62664 6.39526 8.62664 6.82667C8.62664 7.25808 8.45526 7.67181 8.15021 7.97687C7.84516 8.28192 7.43142 8.45329 7.00001 8.45329V8.45329ZM7.00001 4.32092C6.33545 4.32092 5.6981 4.58492 5.22818 5.05484C4.75826 5.52475 4.49426 6.1621 4.49426 6.82667C4.49426 7.49123 4.75826 8.12858 5.22818 8.5985C5.6981 9.06842 6.33545 9.33242 7.00001 9.33242C7.66458 9.33242 8.30192 9.06842 8.77184 8.5985C9.24176 8.12858 9.50576 7.49123 9.50576 6.82667C9.50576 6.1621 9.24176 5.52475 8.77184 5.05484C8.30192 4.58492 7.66458 4.32092 7.00001 4.32092V4.32092ZM10.2347 4.27542C10.2347 4.43251 10.1723 4.58317 10.0613 4.69425C9.95017 4.80533 9.79951 4.86773 9.64242 4.86773C9.48533 4.86773 9.33468 4.80533 9.2236 4.69425C9.11252 4.58317 9.05011 4.43251 9.05011 4.27542C9.05011 4.11833 9.11252 3.96767 9.2236 3.85659C9.33468 3.74551 9.48533 3.68311 9.64242 3.68311C9.79951 3.68311 9.95017 3.74551 10.0613 3.85659C10.1723 3.96767 10.2347 4.11833 10.2347 4.27542" fill="#805D33"/>
</svg>
