<svg width="94" height="57" viewBox="0 0 94 57" fill="none" xmlns="http://www.w3.org/2000/svg">
<path d="M7.54102 25.9456L40.5172 5.13916L73.4935 25.9456V56.9589" stroke="white"/>
<path d="M0.441406 25.9455L40.5119 0.83252L78.9887 25.9455" stroke="white"/>
<path d="M66.0332 17.7013V7.88696H69.9589V20.0568" stroke="white"/>
<path d="M4.92652 42.7585H3.9076V32.6267H4.81171C4.91696 32.7702 5.12266 33.0572 5.42881 33.4877C5.74454 33.9183 6.59603 35.0998 7.98331 37.0325C9.37058 38.9555 10.2556 40.1993 10.6383 40.7637C10.6191 39.9601 10.6096 37.2477 10.6096 32.6267H11.6285V42.7585H10.7818C10.5234 42.395 10.1886 41.9262 9.77719 41.3521C9.37536 40.7781 8.52865 39.587 7.23705 37.7787C5.95502 35.9705 5.17528 34.8559 4.89782 34.4349C4.91696 35.1238 4.92652 37.8983 4.92652 42.7585ZM26.3898 37.6783C26.3898 38.4437 26.2702 39.1564 26.031 39.8166C25.8014 40.4672 25.4713 41.0268 25.0408 41.4956C24.6103 41.9549 24.0936 42.3089 23.4909 42.5576C22.8977 42.8064 22.2519 42.9308 21.5535 42.9308C20.8742 42.9308 20.238 42.8064 19.6448 42.5576C19.0612 42.3089 18.5541 41.9549 18.1236 41.4956C17.7026 41.0364 17.3725 40.4815 17.1334 39.8309C16.9037 39.1708 16.7889 38.458 16.7889 37.6926C16.7889 36.9368 16.9085 36.2336 17.1477 35.583C17.3869 34.9324 17.7265 34.3727 18.1666 33.9039C18.6067 33.4351 19.1282 33.0763 19.7309 32.8276C20.3337 32.5693 20.9795 32.4401 21.6683 32.4401C22.3859 32.4401 23.0412 32.5741 23.6344 32.8419C24.2276 33.1003 24.7299 33.4686 25.1413 33.947C25.5527 34.4253 25.8636 34.985 26.0741 35.6261C26.2846 36.2671 26.3898 36.9511 26.3898 37.6783ZM25.2991 37.7644C25.2991 36.4345 24.9691 35.3773 24.3089 34.5928C23.6488 33.7987 22.7638 33.4016 21.654 33.4016C21.1182 33.4016 20.6159 33.5021 20.1471 33.703C19.6879 33.8944 19.2908 34.1766 18.9559 34.5497C18.6211 34.9133 18.358 35.3629 18.1666 35.8987C17.9849 36.4345 17.894 37.0277 17.894 37.6783C17.894 38.3193 17.9849 38.9077 18.1666 39.4434C18.3484 39.9792 18.602 40.4337 18.9272 40.8068C19.2621 41.1799 19.6592 41.4669 20.1184 41.6679C20.5776 41.8688 21.0703 41.9692 21.5965 41.9692C22.7064 41.9692 23.6009 41.5865 24.2802 40.8211C24.9595 40.0558 25.2991 39.0368 25.2991 37.7644ZM32.7116 42.7585H31.6927V32.6267H32.5968C32.702 32.7702 32.9077 33.0572 33.2139 33.4877C33.5296 33.9183 34.3811 35.0998 35.7684 37.0325C37.1556 38.9555 38.0406 40.1993 38.4233 40.7637C38.4042 39.9601 38.3946 37.2477 38.3946 32.6267H39.4135V42.7585H38.5668C38.3085 42.395 37.9736 41.9262 37.5622 41.3521C37.1604 40.7781 36.3137 39.587 35.0221 37.7787C33.7401 35.9705 32.9603 34.8559 32.6829 34.4349C32.702 35.1238 32.7116 37.8983 32.7116 42.7585ZM54.1749 37.6783C54.1749 38.922 53.8878 39.984 53.3138 40.8642C52.7398 41.7444 51.9648 42.3471 50.9889 42.6724C51.4195 42.9403 51.9409 43.2082 52.5532 43.4761C53.1751 43.744 53.797 43.9688 54.4188 44.1506L54.1175 45.0547C53.3712 44.8538 52.5628 44.5381 51.6921 44.1075C50.8311 43.6866 50.1709 43.2895 49.7117 42.9164L49.3385 42.9308C48.6593 42.9308 48.023 42.8064 47.4299 42.5576C46.8462 42.3089 46.3392 41.9549 45.9086 41.4956C45.4877 41.0364 45.1576 40.4815 44.9184 39.8309C44.6888 39.1708 44.574 38.458 44.574 37.6926C44.574 36.9368 44.6936 36.2336 44.9328 35.583C45.1719 34.9324 45.5116 34.3727 45.9517 33.9039C46.3918 33.4351 46.9132 33.0763 47.516 32.8276C48.1187 32.5693 48.7645 32.4401 49.4534 32.4401C50.1709 32.4401 50.8263 32.5741 51.4195 32.8419C52.0126 33.1003 52.5149 33.4686 52.9263 33.947C53.3377 34.4253 53.6487 34.985 53.8591 35.6261C54.0696 36.2671 54.1749 36.9511 54.1749 37.6783ZM53.0842 37.7644C53.0842 36.4345 52.7541 35.3773 52.094 34.5928C51.4338 33.7987 50.5488 33.4016 49.439 33.4016C48.9032 33.4016 48.4009 33.5021 47.9321 33.703C47.4729 33.8944 47.0759 34.1766 46.741 34.5497C46.4061 34.9133 46.143 35.3629 45.9517 35.8987C45.7699 36.4345 45.679 37.0277 45.679 37.6783C45.679 38.3193 45.7699 38.9077 45.9517 39.4434C46.1335 39.9792 46.387 40.4337 46.7123 40.8068C47.0472 41.1799 47.4442 41.4669 47.9034 41.6679C48.3627 41.8688 48.8554 41.9692 49.3816 41.9692C50.4914 41.9692 51.386 41.5865 52.0653 40.8211C52.7445 40.0558 53.0842 39.0368 53.0842 37.7644ZM68.2496 37.6783C68.2496 38.4437 68.13 39.1564 67.8908 39.8166C67.6612 40.4672 67.3311 41.0268 66.9006 41.4956C66.4701 41.9549 65.9534 42.3089 65.3507 42.5576C64.7575 42.8064 64.1117 42.9308 63.4133 42.9308C62.734 42.9308 62.0978 42.8064 61.5046 42.5576C60.921 42.3089 60.4139 41.9549 59.9834 41.4956C59.5624 41.0364 59.2323 40.4815 58.9931 39.8309C58.7635 39.1708 58.6487 38.458 58.6487 37.6926C58.6487 36.9368 58.7683 36.2336 59.0075 35.583C59.2467 34.9324 59.5863 34.3727 60.0264 33.9039C60.4665 33.4351 60.9879 33.0763 61.5907 32.8276C62.1934 32.5693 62.8392 32.4401 63.5281 32.4401C64.2456 32.4401 64.901 32.5741 65.4942 32.8419C66.0874 33.1003 66.5896 33.4686 67.001 33.947C67.4124 34.4253 67.7234 34.985 67.9339 35.6261C68.1443 36.2671 68.2496 36.9511 68.2496 37.6783ZM67.1589 37.7644C67.1589 36.4345 66.8288 35.3773 66.1687 34.5928C65.5085 33.7987 64.6235 33.4016 63.5137 33.4016C62.978 33.4016 62.4757 33.5021 62.0069 33.703C61.5476 33.8944 61.1506 34.1766 60.8157 34.5497C60.4809 34.9133 60.2178 35.3629 60.0264 35.8987C59.8446 36.4345 59.7537 37.0277 59.7537 37.6783C59.7537 38.3193 59.8446 38.9077 60.0264 39.4434C60.2082 39.9792 60.4617 40.4337 60.787 40.8068C61.1219 41.1799 61.5189 41.4669 61.9782 41.6679C62.4374 41.8688 62.9301 41.9692 63.4563 41.9692C64.5661 41.9692 65.4607 41.5865 66.14 40.8211C66.8193 40.0558 67.1589 39.0368 67.1589 37.7644ZM73.5524 42.7585V32.6267H76.2791C77.1306 32.6267 77.7669 32.7223 78.1878 32.9137C78.6471 33.1146 78.9915 33.4112 79.2211 33.8035C79.4603 34.1862 79.5799 34.6263 79.5799 35.1238C79.5799 35.6404 79.4507 36.0996 79.1924 36.5015C78.9437 36.8937 78.5705 37.1951 78.073 37.4056C78.8193 37.5395 79.3742 37.8218 79.7377 38.2523C80.1109 38.6733 80.2974 39.2234 80.2974 39.9027C80.2974 40.4193 80.1778 40.8977 79.9387 41.3378C79.709 41.7683 79.3646 42.108 78.9054 42.3567C78.6566 42.4811 78.3218 42.5815 77.9008 42.6581C77.4894 42.7251 77.0302 42.7585 76.5231 42.7585H73.5524ZM74.6001 41.8257H76.4944C77.3363 41.8257 77.9104 41.7492 78.2165 41.5961C78.5514 41.4335 78.8001 41.2086 78.9628 40.9216C79.1254 40.625 79.2068 40.2567 79.2068 39.8166C79.2068 39.4147 79.0919 39.056 78.8623 38.7402C78.6327 38.4245 78.3266 38.2092 77.9439 38.0944C77.6377 38.0083 77.1306 37.9653 76.4226 37.9653H74.6001V41.8257ZM74.6001 37.0899H76.2935C76.9823 37.0899 77.4798 36.9798 77.786 36.7598C78.0252 36.578 78.207 36.3532 78.3313 36.0853C78.4653 35.8078 78.5323 35.5352 78.5323 35.2673C78.5323 34.9707 78.4701 34.6932 78.3457 34.4349C78.2309 34.167 78.0682 33.9709 77.8578 33.8465C77.6951 33.7508 77.4751 33.6791 77.1976 33.6313C76.9201 33.5738 76.6331 33.5451 76.3365 33.5451H74.6001V37.0899ZM85.2413 42.7585H84.1075L88.0684 32.6267H89.0013L92.9622 42.7585H91.8715L90.5799 39.5583H86.4898L85.2413 42.7585ZM86.8199 38.5967H90.2498C89.2739 36.0901 88.7047 34.5832 88.542 34.0761C88.0924 35.2912 87.5183 36.7981 86.8199 38.5967Z" fill="white"/>
<path d="M4.2045 48.8723H3.87264V45.6628H4.45453C4.76062 45.6628 4.98186 45.6765 5.11824 45.7037C5.35161 45.7462 5.53042 45.8416 5.65467 45.9901C5.78196 46.1356 5.84561 46.3311 5.84561 46.5766C5.84561 46.7796 5.80166 46.9539 5.71377 47.0994C5.62588 47.2448 5.49859 47.3509 5.33191 47.4176C5.14097 47.4964 4.86215 47.5358 4.49544 47.5358H4.2045V48.8723ZM4.2045 47.2312H4.52272C4.78942 47.2312 4.99399 47.207 5.13643 47.1585C5.19098 47.1403 5.24705 47.1085 5.30463 47.063C5.36221 47.0175 5.40919 46.9539 5.44556 46.8721C5.48192 46.7872 5.50011 46.6948 5.50011 46.5948C5.50011 46.516 5.48496 46.4341 5.45465 46.3493C5.42434 46.2644 5.36524 46.1917 5.27735 46.1311C5.1925 46.0674 5.08945 46.0265 4.96823 46.0083C4.85003 45.9871 4.68183 45.9765 4.46362 45.9765H4.2045V47.2312ZM7.75287 48.8723H7.42101V45.6628H7.98017C8.29839 45.6628 8.53175 45.678 8.68025 45.7083C9.12576 45.7901 9.34852 46.0583 9.34852 46.5129C9.34852 46.7402 9.2879 46.9221 9.16668 47.0585C9.04848 47.1918 8.8924 47.2888 8.69844 47.3494C8.81967 47.3949 8.9318 47.4934 9.03484 47.6449C9.14092 47.7934 9.36216 48.2025 9.69856 48.8723H9.33033C9.13031 48.4723 8.96665 48.1616 8.83936 47.9404C8.71208 47.7191 8.59388 47.5782 8.48478 47.5176C8.41204 47.4812 8.30748 47.4631 8.1711 47.4631H7.75287V48.8723ZM7.75287 47.1767H8.24384C8.38325 47.1767 8.49993 47.16 8.59388 47.1266C8.86967 47.0175 9.00757 46.8221 9.00757 46.5402C9.00757 46.4311 8.98635 46.3356 8.94392 46.2538C8.90149 46.169 8.84088 46.1023 8.76208 46.0538C8.68329 46.0053 8.58024 45.975 8.45295 45.9629C8.31657 45.9538 8.16049 45.9492 7.98472 45.9492H7.75287V47.1767ZM13.9256 47.263C13.9256 47.5055 13.8878 47.7313 13.812 47.9404C13.7393 48.1465 13.6347 48.3238 13.4983 48.4723C13.3619 48.6177 13.1983 48.7299 13.0073 48.8087C12.8194 48.8875 12.6149 48.9269 12.3936 48.9269C12.1785 48.9269 11.9769 48.8875 11.789 48.8087C11.6041 48.7299 11.4435 48.6177 11.3071 48.4723C11.1738 48.3268 11.0692 48.151 10.9935 47.9449C10.9207 47.7358 10.8844 47.51 10.8844 47.2676C10.8844 47.0282 10.9222 46.8054 10.998 46.5993C11.0738 46.3932 11.1814 46.2159 11.3208 46.0674C11.4602 45.9189 11.6254 45.8053 11.8163 45.7265C12.0072 45.6446 12.2118 45.6037 12.43 45.6037C12.6573 45.6037 12.8649 45.6462 13.0528 45.731C13.2407 45.8129 13.3998 45.9295 13.5301 46.0811C13.6605 46.2326 13.759 46.4099 13.8256 46.6129C13.8923 46.816 13.9256 47.0327 13.9256 47.263ZM13.5801 47.2903C13.5801 46.869 13.4756 46.5342 13.2665 46.2856C13.0574 46.0341 12.777 45.9083 12.4255 45.9083C12.2557 45.9083 12.0966 45.9401 11.9481 46.0038C11.8027 46.0644 11.6769 46.1538 11.5708 46.272C11.4647 46.3872 11.3814 46.5296 11.3208 46.6993C11.2632 46.869 11.2344 47.0569 11.2344 47.263C11.2344 47.4661 11.2632 47.6525 11.3208 47.8222C11.3784 47.9919 11.4587 48.1359 11.5617 48.2541C11.6678 48.3723 11.7936 48.4632 11.939 48.5268C12.0845 48.5905 12.2406 48.6223 12.4073 48.6223C12.7588 48.6223 13.0422 48.5011 13.2574 48.2586C13.4726 48.0161 13.5801 47.6934 13.5801 47.2903ZM15.9373 48.8723H15.6054V45.6628H16.1873C16.4934 45.6628 16.7146 45.6765 16.851 45.7037C17.0844 45.7462 17.2632 45.8416 17.3875 45.9901C17.5147 46.1356 17.5784 46.3311 17.5784 46.5766C17.5784 46.7796 17.5344 46.9539 17.4466 47.0994C17.3587 47.2448 17.2314 47.3509 17.0647 47.4176C16.8738 47.4964 16.5949 47.5358 16.2282 47.5358H15.9373V48.8723ZM15.9373 47.2312H16.2555C16.5222 47.2312 16.7268 47.207 16.8692 47.1585C16.9238 47.1403 16.9798 47.1085 17.0374 47.063C17.095 47.0175 17.142 46.9539 17.1783 46.8721C17.2147 46.7872 17.2329 46.6948 17.2329 46.5948C17.2329 46.516 17.2177 46.4341 17.1874 46.3493C17.1571 46.2644 17.098 46.1917 17.0101 46.1311C16.9253 46.0674 16.8222 46.0265 16.701 46.0083C16.5828 45.9871 16.4146 45.9765 16.1964 45.9765H15.9373V47.2312ZM20.954 48.8723H19.1538V45.6628H20.8813V45.9765H19.4857V47.0539H20.7949V47.3676H19.4857V48.5586H20.954V48.8723ZM22.9674 48.8723H22.6356V45.6628H23.1947C23.513 45.6628 23.7463 45.678 23.8948 45.7083C24.3403 45.7901 24.5631 46.0583 24.5631 46.5129C24.5631 46.7402 24.5025 46.9221 24.3812 47.0585C24.263 47.1918 24.107 47.2888 23.913 47.3494C24.0342 47.3949 24.1464 47.4934 24.2494 47.6449C24.3555 47.7934 24.5767 48.2025 24.9131 48.8723H24.5449C24.3449 48.4723 24.1812 48.1616 24.0539 47.9404C23.9266 47.7191 23.8084 47.5782 23.6993 47.5176C23.6266 47.4812 23.522 47.4631 23.3857 47.4631H22.9674V48.8723ZM22.9674 47.1767H23.4584C23.5978 47.1767 23.7145 47.16 23.8084 47.1266C24.0842 47.0175 24.2221 46.8221 24.2221 46.5402C24.2221 46.4311 24.2009 46.3356 24.1585 46.2538C24.1161 46.169 24.0554 46.1023 23.9766 46.0538C23.8979 46.0053 23.7948 45.975 23.6675 45.9629C23.5311 45.9538 23.3751 45.9492 23.1993 45.9492H22.9674V47.1767ZM27.2201 48.8723H26.8837V45.9765H25.9063V45.6628H28.2066V45.9765H27.2201V48.8723ZM30.0642 48.8723H29.7323V45.6628H30.0642V48.8723ZM33.718 48.8723H31.9178V45.6628H33.6453V45.9765H32.2496V47.0539H33.5589V47.3676H32.2496V48.5586H33.718V48.8723ZM35.1194 48.6177V48.2495C35.2467 48.3647 35.3998 48.4571 35.5786 48.5268C35.7604 48.5935 35.9301 48.6268 36.0877 48.6268C36.2059 48.6268 36.3196 48.6102 36.4287 48.5768C36.5378 48.5435 36.6226 48.4844 36.6832 48.3995C36.7439 48.3116 36.7742 48.2101 36.7742 48.0949C36.7742 47.9768 36.7302 47.8707 36.6423 47.7767C36.5544 47.6828 36.4074 47.5843 36.2014 47.4812L35.8104 47.2903C35.5558 47.166 35.3785 47.0372 35.2785 46.9039C35.1815 46.7705 35.1331 46.6129 35.1331 46.4311C35.1331 46.1765 35.2209 45.975 35.3967 45.8265C35.5725 45.678 35.8165 45.6037 36.1286 45.6037C36.2771 45.6037 36.4226 45.6234 36.565 45.6628C36.7075 45.7022 36.8333 45.7568 36.9424 45.8265V46.1902C36.8242 46.0962 36.6893 46.0235 36.5378 45.972C36.3862 45.9204 36.2408 45.8947 36.1014 45.8947C36.0256 45.8947 35.9483 45.9038 35.8695 45.922C35.7937 45.9401 35.724 45.9735 35.6604 46.022C35.5967 46.0705 35.5498 46.1311 35.5195 46.2038C35.4892 46.2765 35.474 46.3462 35.474 46.4129C35.474 46.519 35.5013 46.6145 35.5558 46.6993C35.6134 46.7842 35.7498 46.8796 35.965 46.9857L36.3559 47.1767C36.6166 47.3039 36.8075 47.4327 36.9287 47.5631C37.05 47.6904 37.1106 47.8616 37.1106 48.0768C37.1106 48.3404 37.0196 48.548 36.8378 48.6996C36.659 48.8511 36.4029 48.9269 36.0695 48.9269C35.8847 48.9269 35.7074 48.8981 35.5376 48.8405C35.3679 48.7799 35.2285 48.7056 35.1194 48.6177Z" fill="white"/>
</svg>
