<svg width="14" height="13" viewBox="0 0 14 13" fill="none" xmlns="http://www.w3.org/2000/svg">
<path d="M7.36786 1.78223C4.69195 1.78223 2.51424 3.87973 2.5133 6.45751C2.51267 7.28186 2.73661 8.08639 3.1612 8.79499L2.47241 11.2177L5.0461 10.5676C5.762 10.9421 6.55803 11.1374 7.36597 11.1369H7.36786C10.0438 11.1369 12.2215 9.03906 12.2224 6.46128C12.223 5.21265 11.7186 4.03731 10.8017 3.15383C9.88524 2.27004 8.66649 1.78254 7.36786 1.78223ZM7.36786 10.3471H7.36628C6.64227 10.3471 5.93209 10.1597 5.31249 9.80553L5.16467 9.72124L3.63801 10.1068L4.04562 8.67265L3.94969 8.52577C3.54677 7.91125 3.33228 7.19234 3.33261 6.45751C3.33356 4.31471 5.14391 2.57198 7.36943 2.57198C8.44696 2.57229 9.46002 2.97707 10.2221 3.71147C10.9842 4.44586 11.4034 5.42244 11.4028 6.46097C11.4018 8.60377 9.5918 10.3471 7.36754 10.3471H7.36786ZM9.5811 7.43628C9.4597 7.3781 8.86338 7.09535 8.75204 7.05603C8.64102 7.01735 8.56019 6.99722 8.47936 7.11422C8.39884 7.23122 8.1661 7.49447 8.09565 7.57215C8.02456 7.65015 7.9538 7.65959 7.8324 7.6014C7.71099 7.5429 7.32005 7.41961 6.85708 7.02144C6.49633 6.71195 6.2529 6.3295 6.18213 6.21219C6.11136 6.0955 6.17458 6.03228 6.23528 5.9741C6.28969 5.9222 6.35669 5.83791 6.41707 5.76966C6.47746 5.70141 6.49759 5.65266 6.53848 5.57466C6.57873 5.49698 6.55861 5.42841 6.5281 5.37023C6.49759 5.31141 6.25541 4.73648 6.15382 4.50279C6.05569 4.27508 5.95568 4.30559 5.88114 4.30182C5.81037 4.29867 5.72986 4.29773 5.6484 4.29773C5.56819 4.29773 5.43641 4.32698 5.32507 4.44398C5.21405 4.56098 4.90048 4.84341 4.90048 5.41835C4.90048 5.9936 5.33514 6.54903 5.39584 6.62703C5.45654 6.70472 6.25132 7.8851 7.46819 8.39147C7.75754 8.5113 7.98336 8.58332 8.15981 8.63742C8.45042 8.72643 8.71493 8.71353 8.92377 8.68365C9.15651 8.65 9.64149 8.40122 9.74214 8.12853C9.84341 7.85585 9.84341 7.62185 9.81322 7.5731C9.78365 7.52435 9.70251 7.4951 9.5811 7.43628V7.43628Z" fill="white"/>
</svg>
